# xmcd
#
# Track frame offsets:
#	150
#	20992
#	37100
#	54280
#
# Disc length: 979 seconds
#
# Revision: 0
# Processed by: cddbd v1.5.1PL0 Copyright (c) Steve Scherf et al.
# Submitted via: audiograbber 1.83.01
#
DISCID=3103d104
DTITLE=Kenny Chesney - Kenny Cruzan Sampler
DYEAR=2004
DGENRE=Country
TTITLE0=Kenny Chesney - All I Want For Christmas Is A Real Good Tan
TTITLE1=Kenny Chesney - On The Coast Of Somewhere Beautiful
TTITLE2=Kenny Chesney - Live Those Songs
TTITLE3=Kenny Chesney - Back Where I Come From
EXTD=
EXTT0=
EXTT1=
EXTT2=
EXTT3=
PLAYORDER=
